<svg xmlns="http://www.w3.org/2000/svg" width="23.164" height="36" viewBox="0 0 23.164 36"><path d="M23.164,27c-1.449,0-1.616-2.25-3.852-2.25S16.891,27,15.447,27s-1.626-2.25-3.865-2.25C9.367,24.75,9.14,27,7.73,27c-1.455,0-1.613-2.25-3.865-2.25S1.453,27,0,27V21.375C0,19.512,1.112,18,2.482,18h.827V7.875H6.618V18H9.927V7.875h3.309V18h3.309V7.875h3.309V18h.827c1.37,0,2.482,1.512,2.482,3.375Zm0,9H0V29.25C2.242,29.25,2.418,27,3.865,27s1.616,2.25,3.865,2.25c2.215,0,2.441-2.25,3.852-2.25,1.455,0,1.613,2.25,3.865,2.25S17.865,27,19.312,27c1.421,0,1.616,2.25,3.852,2.25ZM4.964,6.75c-.918,0-1.655-1-1.655-2.25,0-2.18,1.655-1.617,1.655-4.5.62,0,1.655,2.074,1.655,3.938S5.881,6.75,4.964,6.75Zm6.618,0c-.918,0-1.655-1-1.655-2.25,0-2.18,1.655-1.617,1.655-4.5.62,0,1.655,2.074,1.655,3.938S12.5,6.75,11.582,6.75Zm6.618,0c-.918,0-1.655-1-1.655-2.25,0-2.18,1.655-1.617,1.655-4.5.62,0,1.655,2.074,1.655,3.938S19.118,6.75,18.2,6.75Z" fill="purple" opacity="0.51"/></svg>